<svg xmlns="http://www.w3.org/2000/svg" id="_레이어_1" data-name="레이어_1" version="1.1" viewBox="0 0 456.87 56.69"><defs><clipPath id="clippath"><path d="M35.33 2.92c.18 0 .33.06.47.14.81.52 1.63 1 2.32 1.53q2.01 1.545 3.54 3.36 1.47 1.74 2.64 4.14 2.055 4.215 2.19 8.85a21.86 21.86 0 0 1-2.82 11.43q-.645 1.14-.9 1.68c-.4.84-.64 1.43-.74 1.75q-.63 2.1-.57 4.56c.06 2.32.35 4.63.86 6.93.15.68.37 1.42.66 2.2.62 1.7 1.52 3.31 2.83 4.51.65.6 1.43 1.13 2.34 1.61.41.21.88.4 1.4.56.92.28 1.63.48 2.53.51.88.01 1.33-.41 1.34-1.25.02-1.61.02-2.93.01-3.96 0-.5.02-.83.07-.98.3-.89 1.1-.93 2.08-.93h3.81c2.27 0 5.14-.28 5.31-3.25.05-.86-.03-1.92.2-2.78.14-.54.46-.89.84-1.27.79-.8.67-1.98-.08-2.75-.05-.05-.03-.13.03-.16.75-.33 1.38-.8 1.63-1.63.09-.28.08-.53-.01-.75-.17-.4-.35-.81-.52-1.21-.36-.86.33-1.76 1.14-2.04 1.03-.36 2.28-.74 2.68-1.83.28-.75-.04-1.48-.48-2.14-.46-.67-1.1-1.62-1.93-2.83-.86-1.26-1.42-2.39-1.5-3.96-.06-1.19.02-2.94-.07-4.25-.05-.72-.12-1.4-.2-2.05q-.75-5.82-4.59-10.23c-1-1.15-2.26-2.21-3.79-3.2C52.52-.34 45.33-.85 39.13 1.22c-.9.3-1.77.71-2.65 1.04-.07.03-.13.06-.19.09q-.465.285-.93.45c-1.12-.59-2.03-1.01-2.74-1.28-.44-.17-1.15-.39-2.12-.67-2.47-.71-5.08-.95-7.65-.81-5.12.28-10.19 2.38-13.67 6.13-3.12 3.36-4.91 7.95-5.05 12.5-.02.7-.03 1.67-.03 2.93 0 1.62-.11 3.02-.99 4.39-.7 1.09-1.48 2.27-2.34 3.53-.64.93-1.09 1.83-.44 2.74.59.83 1.35 1.04 2.42 1.42.41.14.69.32.98.63.6.65.33 1.41-.04 2.12-.21.4-.31.68-.32.83-.02 1.04.89 1.73 1.71 2.12.05.02.06.09.03.13-.57.65-.84 1.53-.41 2.32.13.24.39.48.61.71.48.54.72 1.17.71 1.92 0 .75.02 1.44.07 2.08.08.99.57 1.76 1.46 2.3.86.52 1.84.66 2.85.67 1.92.02 3.93.03 6.01.02.55 0 .95.21 1.19.64.12.21.17.68.17 1.39-.01 2.09-.02 3.24-.02 3.44 0 .86.16 1.55 1.12 1.65.49.05.95.05 1.37 0 3.43-.46 6.22-2.36 7.68-5.52.42-.89.72-1.75.91-2.56.71-3.04.93-6.22.65-9.56-.09-1.12-.36-2.19-.67-3.24-.15-.53-.36-1.04-.61-1.51-.96-1.8-1.74-3.16-2.35-4.73-1.77-4.54-2.01-9.58-.54-14.26 1-3.17 2.57-6.06 4.84-8.43 1.19-1.24 2.58-2.38 4.08-3.28l1.11-.66Z" fill="none"/></clipPath></defs><g clip-path="url(#clippath)"><path d="M35.37 2.8c.03.07.02.1-.04.11" fill="none" stroke-miterlimit="10" stroke="#8f84bd"/><path d="M58.05 3.25c-.39 2.68-.63 4.44-.65 6.76-.02 2.52-.04 5.52-.07 8.99-.02 1.9-.05 3.06-.1 3.47-.13 1.15-.41 2.27-.83 3.36-.28.72-.64 1.26-.8 2.01-.23 1.09-.36 2.23-.39 3.43-.04 1.86-.09 3.04-.13 3.54-.08.85-.25 2.05-.53 3.61-.35 1.96-.4 4.16-.68 6.22-.22 1.65-.65 3.96-.63 5.95q.015 2.205 0 2.58c-.08 1.33-.51 2.4-1.15 3.52" stroke="#cdc1de" fill="none" stroke-miterlimit="10"/></g><path d="M35.37 2.8c.03.07.02.1-.04.11l-1.11.66c-1.5.89-2.89 2.04-4.08 3.28-2.27 2.37-3.85 5.26-4.84 8.43-1.48 4.68-1.23 9.72.54 14.26.61 1.57 1.4 2.93 2.35 4.73.25.48.46.98.61 1.51.3 1.04.58 2.12.67 3.24.27 3.33.05 6.52-.65 9.56-.19.81-.49 1.67-.91 2.56-1.47 3.16-4.25 5.06-7.68 5.52-.42.06-.88.06-1.37 0-.96-.1-1.12-.79-1.12-1.65 0-.2 0-1.35.02-3.44 0-.71-.05-1.17-.17-1.39-.24-.43-.63-.64-1.19-.64-2.08 0-4.09 0-6.01-.02-1.01-.01-1.99-.15-2.85-.67-.9-.54-1.39-1.31-1.46-2.3-.05-.64-.07-1.34-.07-2.08s-.23-1.38-.71-1.92c-.21-.24-.47-.47-.61-.71-.43-.79-.16-1.67.41-2.32.04-.04.02-.1-.03-.13-.82-.39-1.73-1.08-1.71-2.12 0-.15.11-.43.32-.83.37-.71.64-1.47.04-2.12-.28-.31-.57-.48-.98-.63-1.07-.38-1.83-.59-2.42-1.42-.65-.91-.19-1.81.44-2.74C1.62 28.27 2.4 27.1 3.1 26c.88-1.37 1-2.77.99-4.39 0-1.26 0-2.23.03-2.93.14-4.55 1.94-9.15 5.05-12.5C12.66 2.42 17.72.31 22.85.04c2.57-.14 5.18.11 7.66.82.98.28 1.68.5 2.12.67.7.26 1.61.69 2.74 1.28Z" fill="#5758a5"/><path d="M58.05 3.25c-.39 2.68-.63 4.44-.65 6.76-.02 2.52-.04 5.52-.07 8.99-.02 1.9-.05 3.06-.1 3.47-.13 1.15-.41 2.27-.83 3.36-.28.72-.64 1.26-.8 2.01-.23 1.09-.36 2.23-.39 3.43-.04 1.86-.09 3.04-.13 3.54-.08.85-.25 2.05-.53 3.61-.35 1.96-.4 4.16-.68 6.22-.22 1.65-.65 3.96-.63 5.95q.015 2.205 0 2.58c-.08 1.33-.51 2.4-1.15 3.52-.89-.02-1.6-.23-2.53-.51-.53-.16-.99-.34-1.4-.56-.91-.48-1.69-1.01-2.34-1.61-1.31-1.2-2.21-2.81-2.83-4.51-.29-.79-.5-1.52-.66-2.2-.51-2.3-.8-4.61-.86-6.93-.04-1.64.14-3.16.57-4.56.1-.32.34-.9.74-1.75q.255-.525.9-1.68a21.859 21.859 0 0 0 2.82-11.43q-.135-4.635-2.19-8.85c-.78-1.61-1.67-2.99-2.64-4.14q-1.53-1.815-3.54-3.36c-.68-.53-1.51-1-2.32-1.53a.8.8 0 0 0-.47-.14c.06 0 .07-.05.04-.11q.465-.165.93-.45c.06-.04.12-.07.19-.09.88-.33 1.75-.74 2.65-1.04 6.2-2.07 13.38-1.56 18.91 2.03Z" fill="#c3b3d7"/><path d="M58.05 3.25c1.53.98 2.79 2.05 3.79 3.2q3.855 4.425 4.59 10.23c.08.65.15 1.33.2 2.05.09 1.32.01 3.06.07 4.25.08 1.57.64 2.7 1.5 3.96.83 1.21 1.47 2.15 1.93 2.83.44.65.76 1.38.48 2.14-.41 1.09-1.66 1.47-2.68 1.83-.81.28-1.5 1.18-1.14 2.04.17.41.35.81.52 1.21.09.22.1.47.01.75-.25.83-.88 1.3-1.63 1.63-.06.03-.08.11-.03.16.75.77.87 1.95.08 2.75-.38.38-.7.73-.84 1.27-.23.86-.15 1.92-.2 2.78-.17 2.96-3.04 3.24-5.31 3.25h-3.81c-.99 0-1.78.03-2.08.93-.05.16-.08.49-.07.98.01 1.03 0 2.35-.01 3.96-.01.85-.46 1.26-1.34 1.25.64-1.12 1.07-2.2 1.15-3.52q.03-.375 0-2.58c-.02-1.99.41-4.3.63-5.95.28-2.06.33-4.26.68-6.22.28-1.55.45-2.75.53-3.61.04-.5.09-1.68.13-3.54.03-1.2.16-2.34.39-3.43.16-.75.52-1.28.8-2.01.42-1.09.7-2.22.83-3.36.05-.41.08-1.57.1-3.47.03-3.47.06-6.47.07-8.99.02-2.32.26-4.07.65-6.76Z" fill="#d6cce5"/><path d="M250.65 21.66c0 .09.11.14.18.07 3.02-3.07 6.77-4.5 11.25-4.31 3.35.15 7 1.28 9.4 3.63 2.58 2.52 3.95 5.61 4.11 9.25.1 2.28.14 8.1.09 17.44 0 1.54-.15 2.51-.42 2.92-.99 1.45-4.04 1.44-4.9-.3-.2-.41-.3-1.3-.29-2.66.01-6.44.02-10.7.04-12.79.02-3.3-.23-5.61-.77-6.91-3.16-7.66-15.57-7.03-18.23.48-.36 1.03-.54 2.78-.52 5.27.07 9.38.07 14.57 0 15.56-.08 1.18-.69 1.91-1.82 2.2-1.78.46-2.99-.07-3.64-1.57a1 1 0 0 1-.08-.42V6.86c0-.12.02-.24.05-.36.52-1.71 1.71-2.36 3.55-1.95 1.3.29 1.95 1.17 1.95 2.66.02 8.12.03 12.94.04 14.46ZM219.21 24.1c-1.12.03-2.29.02-3.51-.04-1.79-.09-2.19-1.57-1.99-3.1.13-.95.71-1.57 1.74-1.87h3.85c.12 0 .22-.1.22-.22v-8.85c0-.11.02-.21.05-.31.93-3.07 5.54-2.7 5.56.63.01 2.58.02 5.4.02 8.46 0 .15.12.27.27.28q2.235.06 4.29.03c2.52-.04 4.7-.3 4.58 2.76-.07 1.79-1.3 2.34-3.06 2.26-.52-.02-2.49-.02-5.9.01-.1 0-.18.08-.18.18v14.55c.01 3.93 1.17 7.71 5.89 7.66 1.16-.01 2.32-.16 3.02.27 2.09 1.3 1.48 4.56-1.15 4.92-1.32.18-2.74.15-4.27-.09-6.52-1.03-9.1-6.07-9.1-12.26 0-5-.01-9.98-.03-14.97 0-.17-.14-.31-.31-.3ZM158.49 51.67c-1.67-.16-2.36-1.21-2.36-2.74 0-7.63 0-12.24.01-13.83.02-3.24-.23-5.46-.74-6.68-1.95-4.58-6.9-6.45-11.64-5.66-3.08.51-5.13 2.05-6.18 4.6-.49 1.19-.72 3.36-.7 6.52.02 4.72.04 9 .06 12.85.01 2.07-.12 3.33-.38 3.78-.62 1.04-1.76 1.39-3.41 1.05-1.12-.23-1.71-1.04-1.76-2.41 0-.15-.02-5.48-.05-16.01-.01-3.68.2-6.21.64-7.58 2.32-7.3 10.95-9.08 17.77-7.74 6.07 1.19 9.87 4.46 11.39 9.8.45 1.57.67 4.19.66 7.87-.02 7.87-.03 12.33-.04 13.38-.02 2.08-1.11 3.01-3.28 2.81ZM346.36 22.55c-.85.96-2.63.44-4.46.14-2.35-.38-4.48-.15-6.38.7-3.37 1.49-4.17 5.34-4.13 8.79.04 3.54.04 9.26 0 17.17-.01 2.61-3.98 3.15-5.24 1.19-.21-.33-.32-1-.33-2.02-.03-9.29-.02-14.83.02-16.62.03-1.16-.02-2.6.17-3.77.92-5.69 4.3-9.14 10.15-10.33 3.16-.64 6.34-.52 9.51.35 1.92.53 1.74 3.2.67 4.39ZM392.94 21.96c4.39-5.02 11.46-5.67 17.27-2.9 3.95 1.89 5.92 6.33 5.96 10.63q.06 6.93 0 18.81c-.01 2.17-.73 3.27-3.03 3.18-1.44-.06-2.41-.96-2.51-2.44-.15-2.42.08-5.21.02-7.38-.01-.46-.02-3.59-.04-9.4 0-2.62-.21-4.44-.64-5.45-2.47-5.91-11.88-5.92-14.1.13-.31.84-.46 2.35-.47 4.52v17.08c.03 2.39-1.19 2.96-3.22 2.91-1.37-.03-2.4-.97-2.39-2.3.03-7.5.02-14.01-.02-19.52 0-.57-.21-1.48-.63-2.72-1.37-4.12-6.4-5.45-10.12-3.93-2.76 1.13-4.19 3.38-4.27 6.74q-.09 3.69 0 17.34c.02 2.56-.19 4.58-3.14 4.42-1.67-.09-2.48-1.05-2.49-2.74q-.03-17.055 0-20.88c.06-5.31 3.44-8.9 8.61-10.12 5.27-1.24 11.4-.37 14.97 4 .06.07.16.07.21 0ZM121.43 35.95c0-3.09-.24-5.43-.71-7.01-3-10.07-13.61-13.73-23.02-10.5-5.89 2.02-9.69 7.44-10.15 13.58-.17 2.25-.18 4.13-.04 5.66.44 4.75 3 9.7 7.26 12.14 4.19 2.39 8.61 3.01 13.25 1.84 3.19-.8 5.53-2.51 7.53-5.01.08-.1.23-.05.25.07.11.93-.2 2.68.24 3.61.82 1.75 3.7 1.85 4.82.46.38-.46.56-1.31.57-2.55zm-5.89 2.41c-1.24 5.26-5.34 8.73-10.84 8.85-5.51.13-9.76-3.15-11.24-8.35-.27-.94-.42-2.19-.46-3.75s.06-2.82.28-3.77c1.24-5.26 5.34-8.73 10.84-8.85 5.5-.13 9.76 3.15 11.24 8.35q.405 1.41.45 3.75c.04 1.56-.06 2.82-.28 3.77ZM189.14 17.31c-10.37.09-17.51 7.38-17.42 17.62.08 10.25 7.35 17.42 17.72 17.33 10.36-.09 17.51-7.38 17.42-17.62-.09-10.25-7.35-17.42-17.72-17.33m.22 29.88c-7.17.05-11.85-5.27-11.9-12.28s4.56-12.39 11.73-12.45c7.17-.05 11.85 5.27 11.9 12.28.05 7.02-4.56 12.4-11.73 12.45M303.45 17.51c-2.62-.3-5.13-.06-7.54.72-8.49 2.76-11.24 10.67-10.47 18.92.73 7.98 5.75 13.69 13.8 14.76 4.39.59 8.57-.15 12.54-2.18 1.81-.93 2.46-3.05.9-4.49-1.18-1.09-2.5-.52-3.94.24-7.67 4.06-16.93.8-17.79-8.56 0-.09.06-.17.15-.17h22.76c2.13 0 2.9-.96 2.9-3.06 0-8.45-4.39-15.16-13.31-16.19Zm7.94 14.65s-.03.06-.06.06l-20.2.03s-.06-.02-.06-.06v-.06c0-5.35 4.42-9.7 9.88-9.71h.53c5.46 0 9.9 4.32 9.91 9.67v.06ZM443.57 17.54c-2.61-.3-5.12-.06-7.53.73-8.48 2.76-11.22 10.67-10.45 18.9.74 7.97 5.75 13.67 13.79 14.73 4.39.58 8.56-.15 12.52-2.19 1.8-.93 2.45-3.05.9-4.48-1.18-1.09-2.49-.52-3.93.25-7.66 4.06-16.9.8-17.77-8.54 0-.09.06-.17.15-.17h22.73c2.13 0 2.9-.96 2.9-3.06 0-8.45-4.39-15.14-13.3-16.16Zm7.92 14.61s-.03.07-.07.07l-20.11.03s-.07-.03-.07-.07v-.07c0-5.33 4.38-9.66 9.8-9.67h.63c5.42 0 9.82 4.3 9.83 9.63v.07Z" fill="#0c0f29"/></svg>